<svg width="32" height="32" viewBox="0 0 32 32" fill="none" xmlns="http://www.w3.org/2000/svg">
<path d="M26.6667 6.66667H22.4401L20.0001 4H12.0001L9.56008 6.66667H5.33341C3.86675 6.66667 2.66675 7.86667 2.66675 9.33333V25.3333C2.66675 26.8 3.86675 28 5.33341 28H26.6667C28.1334 28 29.3334 26.8 29.3334 25.3333V9.33333C29.3334 7.86667 28.1334 6.66667 26.6667 6.66667ZM26.6667 25.3333H5.33341V9.33333H26.6667V25.3333Z" fill="black" fill-opacity="0.7"/>
<path d="M16.0001 12C13.0534 12 10.6667 14.3867 10.6667 17.3333C10.6667 20.28 13.0534 22.6667 16.0001 22.6667C18.9467 22.6667 21.3334 20.28 21.3334 17.3333C21.3334 14.3867 18.9467 12 16.0001 12Z" fill="black" fill-opacity="0.7"/>
</svg>
