<svg width="20" height="20" viewBox="0 0 20 20" fill="none" xmlns="http://www.w3.org/2000/svg">
<path d="M10 1.66666C5.40002 1.66666 1.66669 5.39999 1.66669 9.99999C1.66669 14.6 5.40002 18.3333 10 18.3333C14.6 18.3333 18.3334 14.6 18.3334 9.99999C18.3334 5.39999 14.6 1.66666 10 1.66666ZM10 2.49999C14.1334 2.49999 17.5 5.86666 17.5 9.99999C17.5 11.1833 17.2167 12.3 16.725 13.3C15.45 11.8667 13.4084 10.8917 10.575 10.775C12.1417 10.5 13.3334 9.14166 13.3334 7.49999C13.3334 5.65832 11.8417 4.16666 10 4.16666C8.15835 4.16666 6.66669 5.65832 6.66669 7.49999C6.66669 9.14166 7.85835 10.5 9.42502 10.775C6.59169 10.8917 4.55002 11.8667 3.27502 13.3C2.78335 12.3 2.50002 11.1833 2.50002 9.99999C2.50002 5.86666 5.86669 2.49999 10 2.49999ZM7.50002 7.49999C7.50002 6.12499 8.62502 4.99999 10 4.99999C11.375 4.99999 12.5 6.12499 12.5 7.49999C12.5 8.87499 11.375 9.99999 10 9.99999C8.62502 9.99999 7.50002 8.87499 7.50002 7.49999ZM10 17.5C7.36669 17.5 5.05002 16.1333 3.70835 14.0667C5.00835 12.4417 7.17502 11.5833 10 11.5833C12.825 11.5833 14.9917 12.4417 16.2917 14.0667C14.95 16.1333 12.6334 17.5 10 17.5Z" fill="#160C28"/>
</svg>
