<svg width="30" height="30" viewBox="0 0 30 30" fill="none" xmlns="http://www.w3.org/2000/svg">
<path d="M15 2.5C8.1 2.5 2.5 8.1 2.5 15C2.5 21.9 8.1 27.5 15 27.5C21.9 27.5 27.5 21.9 27.5 15C27.5 8.1 21.9 2.5 15 2.5ZM15 3.75C21.2 3.75 26.25 8.8 26.25 15C26.25 16.775 25.825 18.45 25.0875 19.95C23.175 17.8 20.1125 16.3375 15.8625 16.1625C18.2125 15.75 20 13.7125 20 11.25C20 8.4875 17.7625 6.25 15 6.25C12.2375 6.25 10 8.4875 10 11.25C10 13.7125 11.7875 15.75 14.1375 16.1625C9.8875 16.3375 6.825 17.8 4.9125 19.95C4.175 18.45 3.75 16.775 3.75 15C3.75 8.8 8.8 3.75 15 3.75ZM11.25 11.25C11.25 9.1875 12.9375 7.5 15 7.5C17.0625 7.5 18.75 9.1875 18.75 11.25C18.75 13.3125 17.0625 15 15 15C12.9375 15 11.25 13.3125 11.25 11.25ZM15 26.25C11.05 26.25 7.575 24.2 5.5625 21.1C7.5125 18.6625 10.7625 17.375 15 17.375C19.2375 17.375 22.4875 18.6625 24.4375 21.1C22.425 24.2 18.95 26.25 15 26.25Z" fill="#160C28"/>
</svg>
